<svg width="37" height="30" viewBox="0 0 37 30" fill="none" xmlns="http://www.w3.org/2000/svg">
<path d="M29.3097 25.567H1.40435C0.93696 25.567 0.558594 25.176 0.558594 24.6941V0.984223C0.558594 0.502322 0.937433 0.111328 1.40435 0.111328H6.55752C6.80188 0.111328 7.03486 0.220806 7.1954 0.411416L8.89828 2.42993C9.05929 2.62054 9.29133 2.73001 9.53615 2.73001H29.3097C29.7771 2.73001 30.1555 3.12101 30.1555 3.60242V24.6941C30.1555 25.176 29.7766 25.567 29.3097 25.567Z" fill="#44C4A1"/>
<path d="M29.2084 25.5663H1.50569C1.25451 25.5663 1.01361 25.4633 0.835992 25.28C0.658376 25.0967 0.558594 24.848 0.558594 24.5888V9.16211H30.1555V24.5888C30.1555 24.848 30.0557 25.0967 29.8781 25.28C29.7005 25.4633 29.4596 25.5663 29.2084 25.5663Z" fill="#3EA69B"/>
<path d="M30.1558 11.2529C27.6034 11.2529 25.5273 13.3961 25.5273 16.0299V18.587H34.7838V16.0299C34.7838 13.3956 32.7078 11.2529 30.1558 11.2529ZM33.5157 18.1442H26.796V16.0299C26.796 14.1175 28.3033 12.5623 30.1558 12.5623C32.0083 12.5623 33.5157 14.1175 33.5157 16.0299V18.1442Z" fill="#D5D6DB"/>
<path d="M30.1557 29.4897C26.8863 29.4897 24.2363 26.7542 24.2363 23.3804V19.0164C24.2363 18.5345 24.6152 18.1436 25.0821 18.1436H35.2293C35.6967 18.1436 36.0751 18.5345 36.0751 19.0164V23.3804C36.0751 26.7542 33.4251 29.4897 30.1557 29.4897Z" fill="#E56353"/>
<path d="M31.214 23.1317C31.2139 22.9634 31.1762 22.7973 31.1037 22.6465C31.0312 22.4957 30.926 22.3643 30.7962 22.2623C30.6664 22.1604 30.5156 22.0908 30.3554 22.0589C30.1953 22.027 30.0302 22.0337 29.8729 22.0784C29.699 22.1269 29.5402 22.221 29.412 22.3516C29.2838 22.4823 29.1905 22.6449 29.1413 22.8238C29.0806 23.04 29.0863 23.2703 29.1575 23.483C29.2287 23.6957 29.362 23.8805 29.5391 24.0119L29.4051 25.3252C29.4244 25.5172 29.5119 25.6951 29.6509 25.8244C29.7898 25.9537 29.9702 26.0253 30.1573 26.0253C30.3444 26.0253 30.5248 25.9537 30.6638 25.8244C30.8027 25.6951 30.8903 25.5172 30.9095 25.3252L30.7765 24.0119C30.9119 23.9114 31.0222 23.7792 31.0983 23.626C31.1745 23.4729 31.2143 23.3033 31.2145 23.1312L31.214 23.1317Z" fill="#EBF0F3"/>
</svg>
