<svg width="24" height="24" viewBox="0 0 24 24" fill="none" xmlns="http://www.w3.org/2000/svg">
<path opacity="0.4" d="M15.9292 2.49512H7.93389C4.461 2.49512 2.39062 4.56549 2.39062 8.03838V16.0241C2.39062 19.5065 4.461 21.5769 7.93389 21.5769H15.9196C19.3925 21.5769 21.4629 19.5065 21.4629 16.0337V8.03838C21.4724 4.56549 19.4021 2.49512 15.9292 2.49512Z" fill="#65ABEC"/>
<path d="M11.9307 12.9902C11.3964 12.9902 10.9766 12.5609 10.9766 12.0361C10.9766 11.5114 11.4059 11.082 11.9307 11.082C12.4554 11.082 12.8847 11.5114 12.8847 12.0361C12.8847 12.5609 12.4649 12.9902 11.9307 12.9902Z" fill="#65ABEC"/>
<path d="M15.7471 12.9902C15.2128 12.9902 14.793 12.5609 14.793 12.0361C14.793 11.5114 15.2223 11.082 15.7471 11.082C16.2718 11.082 16.7011 11.5114 16.7011 12.0361C16.7011 12.5609 16.2813 12.9902 15.7471 12.9902Z" fill="#65ABEC"/>
<path d="M8.11425 12.9902C7.57996 12.9902 7.16016 12.5609 7.16016 12.0361C7.16016 11.5114 7.5895 11.082 8.11425 11.082C8.639 11.082 9.06834 11.5114 9.06834 12.0361C9.06834 12.5609 8.64854 12.9902 8.11425 12.9902Z" fill="#65ABEC"/>
</svg>
