<svg viewBox="0 0 107 107" fill="none" xmlns="http://www.w3.org/2000/svg">
            <path d="M53.69 104.38C81.6853 104.38 104.38 81.6853 104.38 53.69C104.38 25.6947 81.6853 3 53.69 3C25.6947 3 3 25.6947 3 53.69C3 81.6853 25.6947 104.38 53.69 104.38Z" stroke="#000" stroke-width="5" stroke-miterlimit="10"/>
            <path d="M36.2918 43.5585L27.2036 70.7674C27.0025 71.3694 26.9802 71.8017 27.1367 72.0641C27.2154 72.2185 27.3039 72.3189 27.4024 72.3652C27.506 72.3961 27.8494 72.4887 28.4326 72.6431C29.1571 72.8129 29.406 73.2374 29.1791 73.9167C29.045 74.318 28.7251 74.6422 28.2195 74.8892C27.8483 75.0745 27.3047 75.1671 26.5886 75.1671H25.7585H14.8698H14.235C13.6491 75.1671 13.2269 75.0668 12.9684 74.8661C12.7314 74.6499 12.6773 74.3489 12.8062 73.963C13.0176 73.33 13.4823 72.9132 14.2004 72.7125C14.7942 72.5427 15.137 72.4424 15.2287 72.4115C15.3418 72.3652 15.4704 72.2725 15.6145 72.1336C15.8923 71.8866 16.1214 71.4929 16.3019 70.9526L24.0442 47.773C24.2247 47.2327 24.2585 46.839 24.1457 46.592C24.0945 46.4531 24.0252 46.3682 23.9378 46.3373C23.8719 46.291 23.5988 46.1829 23.1184 46.0131C22.5344 45.8124 22.3481 45.3956 22.5595 44.7626C22.6884 44.3767 22.941 44.0834 23.3173 43.8827C23.715 43.6666 24.2068 43.5585 24.7927 43.5585H25.4275H36.2918ZM31.8544 63.0563L32.682 60.5785C33.4335 60.4241 33.9759 60.2621 34.3093 60.0922C34.659 59.9224 34.9989 59.66 35.3291 59.3049C35.872 58.7028 36.3136 57.8924 36.654 56.8735L39.129 49.4634C39.3714 48.7378 39.4949 48.1975 39.4995 47.8425C39.5042 47.4874 39.3846 47.1632 39.1408 46.8699C38.8132 46.4376 38.2686 46.1675 37.5072 46.0594L38.3425 43.5585C41.6954 43.5585 44.0688 43.8595 45.4628 44.4616C47.0699 45.1563 48.1708 46.2215 48.7655 47.6572C49.3662 49.1238 49.3107 50.9223 48.5991 53.0527C47.805 55.4301 46.6019 57.3752 44.9898 58.8881C43.3829 60.3856 41.468 61.4893 39.2451 62.1995C37.4105 62.7707 34.9469 63.0563 31.8544 63.0563Z" fill="#000"/>
            <path d="M78.7388 26.4878L66.9243 61.8594C66.6628 62.642 66.6338 63.204 66.8373 63.5452C66.9395 63.7458 67.0546 63.8763 67.1826 63.9365C67.3173 63.9766 67.7638 64.097 68.5219 64.2977C69.4638 64.5185 69.7873 65.0704 69.4923 65.9534C69.3181 66.4752 68.9022 66.8967 68.2448 67.2178C67.7624 67.4586 67.0451 67.579 66.0929 67.579H65.0456H50.8903H49.8429C48.9119 67.579 48.2467 67.4486 47.8472 67.1877C47.4755 66.9067 47.3802 66.4953 47.5612 65.9534C47.8561 65.0704 48.5483 64.5185 49.6377 64.2977C50.5299 64.097 51.0568 63.9766 51.2183 63.9365C51.3865 63.8763 51.5782 63.7458 51.7933 63.5452C52.2247 63.204 52.571 62.642 52.8325 61.8594L64.647 26.4878H78.7388ZM89.7203 26.4878L85.6078 38.8001C85.4134 39.3821 85.076 39.8538 84.5957 40.215C84.1365 40.5762 83.6318 40.7569 83.0817 40.7569C82.5527 40.7569 82.162 40.5963 81.9095 40.2752C81.685 39.934 81.617 39.4724 81.7056 38.8904L82.0015 37.0541C82.3076 35.1877 82.2336 33.5722 81.7796 32.2075C81.4898 31.3646 80.9488 30.6722 80.1565 30.1303L81.3731 26.4878H89.7203ZM53.7291 26.4878H62.0762L60.8596 30.1303C59.6841 30.6722 58.6806 31.3646 57.8489 32.2075C56.4832 33.5722 55.33 35.1877 54.3892 37.0541L53.4585 38.8904C53.1583 39.4724 52.7714 39.934 52.2977 40.2752C51.8519 40.5963 51.3645 40.7569 50.8356 40.7569C50.2854 40.7569 49.8909 40.5762 49.6518 40.215C49.4339 39.8538 49.4222 39.3821 49.6166 38.8001L53.7291 26.4878Z" fill="#000"/>
            </svg>
