<svg width="108" height="108" viewBox="0 0 108 108" fill="none" xmlns="http://www.w3.org/2000/svg">
<circle cx="54" cy="54" r="54" fill="white"/>
<path d="M53.69 104.38C81.6853 104.38 104.38 81.6853 104.38 53.69C104.38 25.6947 81.6853 3 53.69 3C25.6947 3 3 25.6947 3 53.69C3 81.6853 25.6947 104.38 53.69 104.38Z" stroke="#231F20" stroke-width="5" stroke-miterlimit="10"/>
<path d="M39.2918 43.5584L30.2036 70.7673C30.0025 71.3693 29.9802 71.8016 30.1367 72.064C30.2154 72.2184 30.3039 72.3187 30.4024 72.3651C30.506 72.3959 30.8494 72.4886 31.4326 72.6429C32.1571 72.8127 32.406 73.2373 32.1791 73.9165C32.045 74.3179 31.7251 74.6421 31.2195 74.8891C30.8483 75.0744 30.3047 75.167 29.5886 75.167H28.7585H17.8698H17.235C16.6491 75.167 16.2269 75.0666 15.9684 74.866C15.7314 74.6498 15.6773 74.3488 15.8062 73.9629C16.0176 73.3299 16.4823 72.9131 17.2004 72.7124C17.7942 72.5426 18.137 72.4422 18.2287 72.4114C18.3418 72.3651 18.4704 72.2724 18.6145 72.1335C18.8923 71.8865 19.1214 71.4928 19.3019 70.9525L27.0442 47.7729C27.2247 47.2325 27.2585 46.8389 27.1457 46.5919C27.0945 46.4529 27.0252 46.368 26.9378 46.3372C26.8719 46.2909 26.5988 46.1828 26.1184 46.013C25.5344 45.8123 25.3481 45.3955 25.5595 44.7625C25.6884 44.3766 25.941 44.0833 26.3173 43.8826C26.715 43.6665 27.2068 43.5584 27.7927 43.5584H28.4275H39.2918ZM34.8544 63.0561L35.682 60.5784C36.4335 60.424 36.9759 60.2619 37.3093 60.0921C37.659 59.9223 37.9989 59.6599 38.3291 59.3048C38.872 58.7027 39.3136 57.8923 39.654 56.8734L42.129 49.4633C42.3714 48.7377 42.4949 48.1974 42.4995 47.8423C42.5042 47.4873 42.3846 47.1631 42.1408 46.8698C41.8132 46.4375 41.2686 46.1674 40.5072 46.0593L41.3425 43.5584C44.6954 43.5584 47.0688 43.8594 48.4628 44.4615C50.0699 45.1562 51.1708 46.2214 51.7655 47.6571C52.3662 49.1237 52.3107 50.9221 51.5991 53.0525C50.805 55.4299 49.6019 57.3751 47.9898 58.888C46.3829 60.3854 44.468 61.4892 42.2451 62.1994C40.4105 62.7706 37.9469 63.0561 34.8544 63.0561Z" fill="#112443"/>
<path d="M78.9727 26.4878L67.1582 61.8594C66.8967 62.642 66.8677 63.204 67.0712 63.5452C67.1734 63.7458 67.2885 63.8763 67.4165 63.9365C67.5512 63.9766 67.9977 64.097 68.7558 64.2977C69.6977 64.5185 70.0212 65.0704 69.7262 65.9534C69.5519 66.4752 69.1361 66.8967 68.4787 67.2178C67.9963 67.4586 67.279 67.579 66.3268 67.579H65.2795H51.1242H50.0768C49.1458 67.579 48.4806 67.4486 48.0811 67.1877C47.7094 66.9067 47.6141 66.4953 47.7951 65.9534C48.09 65.0704 48.7822 64.5185 49.8715 64.2977C50.7638 64.097 51.2906 63.9766 51.4522 63.9365C51.6204 63.8763 51.8121 63.7458 52.0272 63.5452C52.4585 63.204 52.8049 62.642 53.0664 61.8594L64.8809 26.4878H78.9727ZM89.9542 26.4878L85.8417 38.8001C85.6473 39.3821 85.3099 39.8538 84.8296 40.215C84.3704 40.5762 83.8657 40.7569 83.3156 40.7569C82.7866 40.7569 82.3959 40.5963 82.1434 40.2752C81.9188 39.934 81.8509 39.4724 81.9395 38.8904L82.2354 37.0541C82.5414 35.1877 82.4675 33.5722 82.0134 32.2075C81.7237 31.3646 81.1827 30.6722 80.3903 30.1303L81.607 26.4878H89.9542ZM53.9629 26.4878H62.3101L61.0935 30.1303C59.918 30.6722 58.9145 31.3646 58.0828 32.2075C56.7171 33.5722 55.5639 35.1877 54.6231 37.0541L53.6924 38.8904C53.3922 39.4724 53.0053 39.934 52.5316 40.2752C52.0858 40.5963 51.5984 40.7569 51.0695 40.7569C50.5193 40.7569 50.1247 40.5762 49.8857 40.215C49.6678 39.8538 49.6561 39.3821 49.8505 38.8001L53.9629 26.4878Z" fill="#5474B9"/>
</svg>
