<svg width="20" height="20" viewBox="0 0 20 20" fill="none" xmlns="http://www.w3.org/2000/svg">
<path fill-rule="evenodd" clip-rule="evenodd" d="M7.707 14.7076C7.51947 14.895 7.26516 15.0004 7 15.0004C6.73484 15.0004 6.48053 14.895 6.293 14.7076L2.293 10.7076C2.10553 10.52 2.00021 10.2657 2.00021 10.0006C2.00021 9.7354 2.10553 9.4811 2.293 9.29357L6.293 5.29357C6.38525 5.19806 6.49559 5.12188 6.6176 5.06947C6.7396 5.01706 6.87082 4.98947 7.0036 4.98832C7.13638 4.98716 7.26806 5.01247 7.39095 5.06275C7.51385 5.11303 7.6255 5.18728 7.71939 5.28117C7.81329 5.37507 7.88754 5.48672 7.93782 5.60961C7.9881 5.73251 8.0134 5.86419 8.01225 5.99697C8.0111 6.12975 7.98351 6.26097 7.9311 6.38297C7.87869 6.50498 7.80251 6.61532 7.707 6.70757L5.414 9.00057L17 9.00057C17.2652 9.00057 17.5196 9.10593 17.7071 9.29346C17.8946 9.481 18 9.73535 18 10.0006C18 10.2658 17.8946 10.5201 17.7071 10.7077C17.5196 10.8952 17.2652 11.0006 17 11.0006L5.414 11.0006L7.707 13.2936C7.89447 13.4811 7.99979 13.7354 7.99979 14.0006C7.99979 14.2657 7.89447 14.52 7.707 14.7076Z" fill="#D1D5DB"/>
</svg>
