<svg width="45" height="45" viewBox="0 0 45 45" fill="none" xmlns="http://www.w3.org/2000/svg">
<g id="vuesax/bulk/camera">
<g id="camera">
<path id="Vector" opacity="0.4" d="M12.6753 41.25H32.3253C37.5003 41.25 39.5628 38.0812 39.8066 34.2188L40.7816 18.7312C41.0441 14.6812 37.8191 11.25 33.7503 11.25C32.6066 11.25 31.5566 10.5938 31.0316 9.58125L29.6816 6.8625C28.8191 5.15625 26.5691 3.75 24.6566 3.75H20.3628C18.4316 3.75 16.1816 5.15625 15.3191 6.8625L13.9691 9.58125C13.4441 10.5938 12.3941 11.25 11.2503 11.25C7.18156 11.25 3.95656 14.6812 4.21906 18.7312L5.19406 34.2188C5.41906 38.0812 7.50031 41.25 12.6753 41.25Z" fill="#9CA3AF"/>
<path id="Vector_2" d="M25.3125 16.4062H19.6875C18.9187 16.4062 18.2812 15.7687 18.2812 15C18.2812 14.2312 18.9187 13.5938 19.6875 13.5938H25.3125C26.0813 13.5938 26.7188 14.2312 26.7188 15C26.7188 15.7687 26.0813 16.4062 25.3125 16.4062Z" fill="#9CA3AF"/>
<path id="Vector_3" d="M22.4996 33.9934C25.9997 33.9934 28.8371 31.156 28.8371 27.6559C28.8371 24.1558 25.9997 21.3184 22.4996 21.3184C18.9995 21.3184 16.1621 24.1558 16.1621 27.6559C16.1621 31.156 18.9995 33.9934 22.4996 33.9934Z" fill="#9CA3AF"/>
</g>
</g>
</svg>
