<svg width="12" height="12" viewBox="0 0 12 12" fill="none" xmlns="http://www.w3.org/2000/svg">
<path opacity="0.4" d="M6 11C8.76142 11 11 8.76142 11 6C11 3.23858 8.76142 1 6 1C3.23858 1 1 3.23858 1 6C1 8.76142 3.23858 11 6 11Z" fill="#9CA3AF"/>
<path d="M6.52993 5.99969L7.67993 4.84969C7.82493 4.70469 7.82493 4.46469 7.67993 4.31969C7.53493 4.17469 7.29493 4.17469 7.14993 4.31969L5.99993 5.46969L4.84993 4.31969C4.70493 4.17469 4.46493 4.17469 4.31993 4.31969C4.17493 4.46469 4.17493 4.70469 4.31993 4.84969L5.46993 5.99969L4.31993 7.14969C4.17493 7.29469 4.17493 7.53469 4.31993 7.67969C4.39493 7.75469 4.48993 7.78969 4.58493 7.78969C4.67993 7.78969 4.77493 7.75469 4.84993 7.67969L5.99993 6.52969L7.14993 7.67969C7.22493 7.75469 7.31993 7.78969 7.41493 7.78969C7.50993 7.78969 7.60493 7.75469 7.67993 7.67969C7.82493 7.53469 7.82493 7.29469 7.67993 7.14969L6.52993 5.99969Z" fill="#9CA3AF"/>
</svg>
