<svg width="11" height="11" viewBox="0 0 11 11" fill="none" xmlns="http://www.w3.org/2000/svg">
<path d="M5.08734 10.4264H3.16234C1.37025 10.4264 0.572754 9.62893 0.572754 7.83685V5.91185C0.572754 4.11977 1.37025 3.32227 3.16234 3.32227H5.08734C6.87942 3.32227 7.67692 4.11977 7.67692 5.91185V7.83685C7.67692 9.62893 6.87942 10.4264 5.08734 10.4264ZM3.16234 4.00977C1.7415 4.00977 1.26025 4.49102 1.26025 5.91185V7.83685C1.26025 9.25768 1.7415 9.73893 3.16234 9.73893H5.08734C6.50817 9.73893 6.98942 9.25768 6.98942 7.83685V5.91185C6.98942 4.49102 6.50817 4.00977 5.08734 4.00977H3.16234Z" fill="#D1D5DB"/>
<path d="M7.83734 7.67643H7.33317C7.14525 7.67643 6.98942 7.5206 6.98942 7.33268V5.91185C6.98942 4.49102 6.50817 4.00977 5.08734 4.00977H3.6665C3.47859 4.00977 3.32275 3.85393 3.32275 3.66602V3.16185C3.32275 1.36977 4.12025 0.572266 5.91234 0.572266H7.83734C9.62942 0.572266 10.4269 1.36977 10.4269 3.16185V5.08685C10.4269 6.87893 9.62942 7.67643 7.83734 7.67643ZM7.67692 6.98893H7.83734C9.25817 6.98893 9.73942 6.50768 9.73942 5.08685V3.16185C9.73942 1.74102 9.25817 1.25977 7.83734 1.25977H5.91234C4.4915 1.25977 4.01025 1.74102 4.01025 3.16185V3.32227H5.08734C6.87942 3.32227 7.67692 4.11977 7.67692 5.91185V6.98893Z" fill="#D1D5DB"/>
</svg>
