<svg width="14" height="14" viewBox="0 0 14 14" fill="none" xmlns="http://www.w3.org/2000/svg">
<path d="M9.23989 13.2702H4.75989C3.19656 13.2702 2.48489 12.6868 2.16989 12.2027C1.70906 11.491 1.72656 10.5168 2.22239 9.38518L4.45656 4.31018C4.14739 4.22852 3.86156 4.06518 3.63406 3.83768C3.30156 3.49935 3.10323 3.03268 3.10323 2.54852C3.10323 1.54518 3.91989 0.728516 4.92323 0.728516H9.07073C9.55489 0.728516 10.0157 0.921016 10.3599 1.26518C10.8149 1.72018 10.9957 2.36768 10.8441 2.99185C10.6924 3.61602 10.1791 4.11185 9.54906 4.29268L11.7774 9.39102C12.2674 10.5168 12.2849 11.491 11.8182 12.2027C11.5032 12.6868 10.7916 13.2702 9.23989 13.2702ZM4.92323 1.60352C4.40406 1.60352 3.97823 2.02935 3.97823 2.54852C3.97823 2.79935 4.08323 3.04435 4.25239 3.21935C4.42739 3.39435 4.67239 3.49352 4.92323 3.49352H5.09823C5.24406 3.49352 5.38406 3.56935 5.46573 3.69185C5.54739 3.81435 5.55906 3.97185 5.50073 4.10602L3.02156 9.73518C2.65406 10.5752 2.60739 11.281 2.89906 11.7243C3.26073 12.2785 4.10656 12.3952 4.75406 12.3952H9.23406C9.87573 12.3952 10.7157 12.2785 11.0832 11.7243C11.3749 11.2752 11.3341 10.5752 10.9724 9.74102L8.51656 4.10602C8.45823 3.97185 8.46989 3.81435 8.55156 3.69185C8.63323 3.56935 8.7674 3.49352 8.91906 3.49352H9.01239C9.47906 3.49352 9.89906 3.19602 9.99823 2.78185C10.0799 2.44935 9.98656 2.12268 9.74739 1.88352C9.56656 1.70268 9.32739 1.60352 9.07656 1.60352H4.92323Z" fill="#FF5A1F"/>
<path d="M8.07317 8.77254C7.68817 8.77254 7.274 8.72004 6.85983 8.58004C5.20317 8.02587 3.494 8.08421 3.4765 8.08421C3.24317 8.11921 3.03317 7.90337 3.0215 7.66421C3.00983 7.42504 3.20233 7.22087 3.4415 7.20921C3.51733 7.20337 5.3315 7.14504 7.134 7.74587C8.65067 8.25337 10.1382 7.29087 10.1557 7.27921C10.354 7.14504 10.6282 7.20337 10.7623 7.40171C10.8965 7.60004 10.844 7.87421 10.6398 8.00837C10.5873 8.04921 9.479 8.77254 8.07317 8.77254Z" fill="#FF5A1F"/>
</svg>
