<svg width="17" height="15" viewBox="0 0 17 15" fill="none" xmlns="http://www.w3.org/2000/svg">
<path d="M9.7144 6.35803C9.22557 5.88935 8.56266 5.62606 7.87145 5.62606C7.18024 5.62606 6.51733 5.88935 6.0285 6.35803L3.42178 8.85803C3.17281 9.08865 2.97422 9.36451 2.83761 9.66952C2.70099 9.97453 2.62908 10.3026 2.62607 10.6345C2.62307 10.9665 2.68902 11.2957 2.82009 11.6029C2.95116 11.9102 3.14472 12.1893 3.38947 12.424C3.63422 12.6587 3.92526 12.8444 4.24562 12.9701C4.56598 13.0958 4.90923 13.159 5.25535 13.1562C5.60147 13.1533 5.94352 13.0843 6.26155 12.9533C6.57958 12.8223 6.86722 12.6318 7.10768 12.393L7.82583 11.7049M7.33186 8.64303C7.82069 9.11171 8.4836 9.375 9.17481 9.375C9.86602 9.375 10.5289 9.11171 11.0178 8.64303L13.6245 6.14303C14.0993 5.67152 14.3621 5.04002 14.3561 4.38453C14.3502 3.72903 14.076 3.102 13.5927 2.63848C13.1094 2.17496 12.4556 1.91204 11.7722 1.90634C11.0887 1.90065 10.4302 2.15263 9.93858 2.60803L9.22173 3.29553" stroke="#1F2A37" stroke-linecap="round" stroke-linejoin="round"/>
</svg>
