<svg width="18" height="18" viewBox="0 0 18 18" fill="none" xmlns="http://www.w3.org/2000/svg">
<path d="M1.7998 2.70078C1.7998 2.46209 1.89463 2.23317 2.06341 2.06439C2.23219 1.8956 2.46111 1.80078 2.6998 1.80078H4.6375C4.85054 1.80088 5.05663 1.87654 5.21912 2.01431C5.38162 2.15209 5.48997 2.34303 5.5249 2.55318L6.19091 6.54468C6.22273 6.73478 6.19268 6.93007 6.10519 7.10181C6.0177 7.27355 5.87739 7.41267 5.70491 7.49868L4.3117 8.19438C4.8113 9.43247 5.55535 10.5571 6.4994 11.5012C7.44345 12.4452 8.56812 13.1893 9.8062 13.6889L10.5028 12.2957C10.5888 12.1234 10.7277 11.9832 10.8993 11.8957C11.0709 11.8082 11.2659 11.7781 11.4559 11.8097L15.4474 12.4757C15.6576 12.5106 15.8485 12.619 15.9863 12.7815C16.124 12.944 16.1997 13.15 16.1998 13.3631V15.3008C16.1998 15.5395 16.105 15.7684 15.9362 15.9372C15.7674 16.106 15.5385 16.2008 15.2998 16.2008H13.4998C7.03781 16.2008 1.7998 10.9628 1.7998 4.50078V2.70078Z" fill="#0E9F6E"/>
</svg>
