<svg width="12" height="12" viewBox="0 0 12 12" fill="none" xmlns="http://www.w3.org/2000/svg">
<path opacity="0.4" d="M1 6.4407V5.5607C1 5.0407 1.425 4.6107 1.95 4.6107C2.855 4.6107 3.225 3.9707 2.77 3.1857C2.51 2.7357 2.665 2.1507 3.12 1.8907L3.985 1.3957C4.38 1.1607 4.89 1.3007 5.125 1.6957L5.18 1.7907C5.63 2.5757 6.37 2.5757 6.825 1.7907L6.88 1.6957C7.115 1.3007 7.625 1.1607 8.02 1.3957L8.885 1.8907C9.34 2.1507 9.495 2.7357 9.235 3.1857C8.78 3.9707 9.15 4.6107 10.055 4.6107C10.575 4.6107 11.005 5.0357 11.005 5.5607V6.4407C11.005 6.9607 10.58 7.3907 10.055 7.3907C9.15 7.3907 8.78 8.0307 9.235 8.8157C9.495 9.2707 9.34 9.8507 8.885 10.1107L8.02 10.6057C7.625 10.8407 7.115 10.7007 6.88 10.3057L6.825 10.2107C6.375 9.4257 5.635 9.4257 5.18 10.2107L5.125 10.3057C4.89 10.7007 4.38 10.8407 3.985 10.6057L3.12 10.1107C2.665 9.8507 2.51 9.2657 2.77 8.8157C3.225 8.0307 2.855 7.3907 1.95 7.3907C1.425 7.3907 1 6.9607 1 6.4407Z" fill="#9CA3AF"/>
<path d="M6 7.625C6.89746 7.625 7.625 6.89746 7.625 6C7.625 5.10254 6.89746 4.375 6 4.375C5.10254 4.375 4.375 5.10254 4.375 6C4.375 6.89746 5.10254 7.625 6 7.625Z" fill="#9CA3AF"/>
</svg>
