<svg width="32" height="32" viewBox="0 0 32 32" fill="none" xmlns="http://www.w3.org/2000/svg">
<path d="M22.2001 26.933V27.3197C20.2268 28.5863 17.8668 29.333 15.3334 29.333C12.7601 29.333 10.3601 28.5597 8.36011 27.2397V26.933C8.36011 23.8264 11.4668 21.293 15.2801 21.293C19.1068 21.293 22.2001 23.8264 22.2001 26.933Z" fill="#3F83F8"/>
<path opacity="0.4" d="M28.0001 16.6667C28.0001 21.1333 25.6934 25.0533 22.2001 27.32V26.9333C22.2001 23.8267 19.1067 21.2933 15.2801 21.2933C11.4667 21.2933 8.36008 23.8267 8.36008 26.9333V27.24C4.93342 24.9733 2.66675 21.0933 2.66675 16.6667C2.66675 9.66667 8.33342 4 15.3334 4C17.0801 4 18.7467 4.34665 20.2668 4.98665C20.0934 5.51999 20.0001 6.08 20.0001 6.66667C20.0001 7.66667 20.2801 8.61333 20.7734 9.41333C21.0401 9.86666 21.3867 10.28 21.7867 10.6266C22.7201 11.48 23.9601 12 25.3334 12C25.9201 12 26.4801 11.9066 27.0001 11.72C27.6401 13.24 28.0001 14.92 28.0001 16.6667Z" fill="#3F83F8"/>
<path d="M29.2933 3.10734C28.3333 2.01401 26.9067 1.33398 25.3333 1.33398C23.84 1.33398 22.48 1.94735 21.5067 2.94735C20.9467 3.52068 20.52 4.21397 20.2667 4.9873C20.0933 5.52064 20 6.08065 20 6.66732C20 7.66732 20.28 8.61398 20.7733 9.41398C21.04 9.86731 21.3867 10.2806 21.7867 10.6273C22.72 11.4806 23.96 12.0007 25.3333 12.0007C25.92 12.0007 26.48 11.9073 27 11.7206C28.2267 11.334 29.2533 10.494 29.8933 9.41398C30.1733 8.96065 30.3867 8.44064 30.5067 7.90731C30.6133 7.50731 30.6667 7.09398 30.6667 6.66732C30.6667 5.30732 30.1467 4.05401 29.2933 3.10734ZM27.32 7.64062H26.3333V8.68066C26.3333 9.22733 25.88 9.68066 25.3333 9.68066C24.7867 9.68066 24.3333 9.22733 24.3333 8.68066V7.64062H23.3467C22.8 7.64062 22.3467 7.18729 22.3467 6.64062C22.3467 6.09396 22.8 5.64062 23.3467 5.64062H24.3333V4.69401C24.3333 4.14734 24.7867 3.69401 25.3333 3.69401C25.88 3.69401 26.3333 4.14734 26.3333 4.69401V5.64062H27.32C27.8667 5.64062 28.32 6.09396 28.32 6.64062C28.32 7.18729 27.88 7.64062 27.32 7.64062Z" fill="#3F83F8"/>
<path d="M15.2801 19.6398C17.3493 19.6398 19.0268 17.9624 19.0268 15.8931C19.0268 13.8239 17.3493 12.1465 15.2801 12.1465C13.2109 12.1465 11.5334 13.8239 11.5334 15.8931C11.5334 17.9624 13.2109 19.6398 15.2801 19.6398Z" fill="#3F83F8"/>
</svg>
