<svg width="13" height="13" viewBox="0 0 13 13" fill="none" xmlns="http://www.w3.org/2000/svg">
<path opacity="0.4" d="M5.82292 1.32758C6.19667 1.00799 6.80875 1.00799 7.18792 1.32758L8.04375 2.06424C8.20625 2.20508 8.50959 2.31883 8.72625 2.31883H9.64709C10.2213 2.31883 10.6925 2.79008 10.6925 3.36424V4.28508C10.6925 4.49633 10.8063 4.80508 10.9471 4.96758L11.6838 5.82341C12.0033 6.19716 12.0033 6.80925 11.6838 7.18841L10.9471 8.04425C10.8063 8.20675 10.6925 8.51008 10.6925 8.72675V9.64758C10.6925 10.2217 10.2213 10.693 9.64709 10.693H8.72625C8.515 10.693 8.20625 10.8067 8.04375 10.9476L7.18792 11.6842C6.81417 12.0038 6.20209 12.0038 5.82292 11.6842L4.96709 10.9476C4.80459 10.8067 4.50125 10.693 4.28459 10.693H3.3475C2.77334 10.693 2.30209 10.2217 2.30209 9.64758V8.72133C2.30209 8.51008 2.18834 8.20675 2.05292 8.04425L1.32167 7.183C1.0075 6.80925 1.0075 6.20258 1.32167 5.82883L2.05292 4.96758C2.18834 4.80508 2.30209 4.50174 2.30209 4.29049V3.35883C2.30209 2.78466 2.77334 2.31341 3.3475 2.31341H4.28459C4.49584 2.31341 4.80459 2.19966 4.96709 2.05883L5.82292 1.32758Z" fill="#3F83F8"/>
<path d="M5.84459 8.21646C5.73626 8.21646 5.63334 8.17312 5.55751 8.09729L4.24667 6.78646C4.08959 6.62937 4.08959 6.36937 4.24667 6.21229C4.40376 6.05521 4.66376 6.05521 4.82084 6.21229L5.84459 7.23604L8.17376 4.90688C8.33084 4.74979 8.59084 4.74979 8.74792 4.90688C8.90501 5.06396 8.90501 5.32396 8.74792 5.48104L6.13167 8.09729C6.05584 8.17312 5.95292 8.21646 5.84459 8.21646Z" fill="#3F83F8"/>
</svg>
