<svg width="18" height="18" viewBox="0 0 18 18" fill="none" xmlns="http://www.w3.org/2000/svg">
<path d="M9 9C11.0711 9 12.75 7.32107 12.75 5.25C12.75 3.17893 11.0711 1.5 9 1.5C6.92893 1.5 5.25 3.17893 5.25 5.25C5.25 7.32107 6.92893 9 9 9Z" fill="#9CA3AF"/>
<path opacity="0.4" d="M9.00002 10.875C5.24252 10.875 2.1825 13.395 2.1825 16.5C2.1825 16.71 2.3475 16.875 2.5575 16.875H15.4425C15.6525 16.875 15.8175 16.71 15.8175 16.5C15.8175 13.395 12.7575 10.875 9.00002 10.875Z" fill="#9CA3AF"/>
<path d="M17.0775 15.5103L16.5075 14.9403C16.8075 14.4903 16.98 13.9503 16.98 13.3728C16.98 11.7903 15.6975 10.5078 14.115 10.5078C12.5325 10.5078 11.25 11.7903 11.25 13.3728C11.25 14.9553 12.5325 16.2378 14.115 16.2378C14.6925 16.2378 15.2325 16.0653 15.6825 15.7653L16.2525 16.3353C16.365 16.4478 16.515 16.5078 16.665 16.5078C16.815 16.5078 16.965 16.4478 17.0775 16.3353C17.31 16.1028 17.31 15.7353 17.0775 15.5103Z" fill="#9CA3AF"/>
</svg>
