<svg width="18" height="18" viewBox="0 0 18 18" fill="none" xmlns="http://www.w3.org/2000/svg">
<path opacity="0.4" d="M8.06253 1.83773C8.58003 1.39523 9.42753 1.39523 9.95253 1.83773L11.1375 2.85773C11.3625 3.05273 11.7825 3.21023 12.0825 3.21023H13.3575C14.1525 3.21023 14.805 3.86273 14.805 4.65773V5.93273C14.805 6.22523 14.9625 6.65273 15.1575 6.87773L16.1775 8.06273C16.62 8.58023 16.62 9.42773 16.1775 9.95273L15.1575 11.1377C14.9625 11.3627 14.805 11.7827 14.805 12.0827V13.3577C14.805 14.1527 14.1525 14.8052 13.3575 14.8052H12.0825C11.79 14.8052 11.3625 14.9627 11.1375 15.1577L9.95253 16.1777C9.43503 16.6202 8.58753 16.6202 8.06253 16.1777L6.87753 15.1577C6.65253 14.9627 6.23253 14.8052 5.93253 14.8052H4.63503C3.84003 14.8052 3.18753 14.1527 3.18753 13.3577V12.0752C3.18753 11.7827 3.03003 11.3627 2.84253 11.1377L1.83003 9.94523C1.39503 9.42773 1.39503 8.58773 1.83003 8.07023L2.84253 6.87773C3.03003 6.65273 3.18753 6.23273 3.18753 5.94023V4.65023C3.18753 3.85523 3.84003 3.20273 4.63503 3.20273H5.93253C6.22503 3.20273 6.65253 3.04523 6.87753 2.85023L8.06253 1.83773Z" fill="#9CA3AF"/>
<path d="M8.09254 11.3784C7.94254 11.3784 7.80004 11.3184 7.69504 11.2134L5.88004 9.39844C5.66254 9.18094 5.66254 8.82094 5.88004 8.60344C6.09754 8.38594 6.45754 8.38594 6.67504 8.60344L8.09254 10.0209L11.3175 6.79594C11.535 6.57844 11.895 6.57844 12.1125 6.79594C12.33 7.01344 12.33 7.37344 12.1125 7.59094L8.49004 11.2134C8.38504 11.3184 8.24254 11.3784 8.09254 11.3784Z" fill="#9CA3AF"/>
</svg>
