<svg width="18" height="18" viewBox="0 0 18 18" fill="none" xmlns="http://www.w3.org/2000/svg">
<path opacity="0.4" d="M1.5 6.75V11.25C1.5 12.495 2.505 13.5 3.75 13.5H14.25C15.495 13.5 16.5 12.495 16.5 11.25V6.75C16.5 5.505 15.495 4.5 14.25 4.5H3.75C2.505 4.5 1.5 5.505 1.5 6.75Z" fill="#9CA3AF"/>
<path d="M3.99756 3.9975V4.2525C3.99756 4.3425 3.99756 4.425 4.00506 4.515C4.04256 4.5075 4.08006 4.5 4.12506 4.5H5.25006H12.7501H13.8751C13.9201 4.5 13.9576 4.5075 13.9951 4.515C14.0026 4.4325 14.0026 4.35 14.0026 4.2525V3.9975C14.0026 2.0025 13.5001 1.5 11.4976 1.5H6.50256C4.50006 1.5 3.99756 2.0025 3.99756 3.9975Z" fill="#9CA3AF"/>
<path d="M13.8751 13.4994H12.7501H5.25006H4.12506C4.08006 13.4994 4.04256 13.4919 4.00506 13.4844C3.99756 13.5669 3.99756 13.6494 3.99756 13.7469V14.0019C3.99756 15.9969 4.50006 16.4994 6.50256 16.4994H11.4976C13.5001 16.4994 14.0026 15.9969 14.0026 14.0019V13.7469C14.0026 13.6569 14.0026 13.5744 13.9951 13.4844C13.9576 13.4919 13.9201 13.4994 13.8751 13.4994Z" fill="#9CA3AF"/>
</svg>
